<svg width="86" height="58" viewBox="0 0 86 58" fill="none" xmlns="http://www.w3.org/2000/svg">
<g style="mix-blend-mode:darken">
<path fill-rule="evenodd" clip-rule="evenodd" d="M17.0588 23.8824C20.8274 23.8824 23.8824 20.8274 23.8824 17.0588C23.8824 13.2903 20.8274 10.2353 17.0588 10.2353C13.2903 10.2353 10.2353 13.2903 10.2353 17.0588C10.2353 20.8274 13.2903 23.8824 17.0588 23.8824ZM17.0588 34.1176C26.4801 34.1176 34.1176 26.4801 34.1176 17.0588C34.1176 7.6375 26.4801 0 17.0588 0C7.6375 0 0 7.6375 0 17.0588C0 26.4801 7.6375 34.1176 17.0588 34.1176Z" fill="black"/>
<rect width="17.0588" height="34.1176" fill="white"/>
<rect width="17.0588" height="10.2353" fill="black"/>
<rect y="23.8828" width="17.0588" height="10.2353" fill="black"/>
<path fill-rule="evenodd" clip-rule="evenodd" d="M51.1765 10.2348C47.408 10.2348 44.353 13.2898 44.353 17.0584C44.353 20.8269 47.408 23.8819 51.1765 23.8819C54.9451 23.8819 58.0001 20.8269 58.0001 17.0584C58.0001 13.2898 54.9451 10.2348 51.1765 10.2348ZM51.1765 -0.000459255C41.7552 -0.000460079 34.1177 7.63704 34.1177 17.0584C34.1177 26.4797 41.7552 34.1172 51.1765 34.1172C60.5979 34.1172 68.2354 26.4797 68.2354 17.0584C68.2354 7.63704 60.5979 -0.000458431 51.1765 -0.000459255Z" fill="black"/>
<rect x="68.2354" y="34.1172" width="17.0588" height="34.1176" transform="rotate(-180 68.2354 34.1172)" fill="white"/>
<rect x="68.2354" y="34.1172" width="17.0588" height="10.2353" transform="rotate(-180 68.2354 34.1172)" fill="black"/>
<rect x="68.2354" y="10.2344" width="17.0588" height="10.2353" transform="rotate(-180 68.2354 10.2344)" fill="black"/>
<path fill-rule="evenodd" clip-rule="evenodd" d="M68.2351 47.7652C72.0036 47.7652 75.0586 44.7102 75.0586 40.9416C75.0586 37.1731 72.0036 34.1181 68.2351 34.1181C64.4666 34.1181 61.4116 37.1731 61.4116 40.9416C61.4116 44.7102 64.4666 47.7652 68.2351 47.7652ZM68.2351 58.0005C77.6564 58.0005 85.2939 50.363 85.2939 40.9416C85.2939 31.5203 77.6564 23.8828 68.2351 23.8828C58.8138 23.8828 51.1763 31.5203 51.1763 40.9416C51.1763 50.363 58.8138 58.0005 68.2351 58.0005Z" fill="black"/>
<rect x="51.1763" y="23.8828" width="17.0588" height="34.1176" fill="white"/>
<rect x="51.1763" y="23.8828" width="17.0588" height="10.2353" fill="black"/>
<rect x="51.1763" y="47.7656" width="17.0588" height="10.2353" fill="black"/>
</g>
</svg>
